<mxfile host="app.diagrams.net" modified="2024-07-09T10:48:38.505Z" agent="Mozilla/5.0 (Windows NT 10.0; Win64; x64) AppleWebKit/537.36 (KHTML, like Gecko) Chrome/126.0.0.0 Safari/537.36" version="24.6.4" etag="1vcx_j_4i5DBHXYL-clf" type="github">
  <diagram name="Trang-1" id="FnY7nT6zLUI4M2Fz--ki">
    <mxGraphModel>
      <root>
        <mxCell id="0" />
        <mxCell id="1" parent="0" />
      </root>
    </mxGraphModel>
  </diagram>
</mxfile>
